<svg width="214" height="77" viewBox="0 0 214 77" fill="none" xmlns="http://www.w3.org/2000/svg">
<rect x="94.1169" y="0.920837" width="119.017" height="64.0449" rx="1.55809" fill="#EB5E28"/>
<path d="M108.466 50.7007L110.328 15.1859H116.82L115.258 44.9802H130.486L130.186 50.7007H108.466Z" fill="#FFFCF2"/>
<path d="M144.953 51.2727C142.28 51.2727 139.973 50.6689 138.031 49.4613C136.089 48.2536 134.616 46.6169 133.61 44.5512C132.605 42.4854 132.168 40.1972 132.299 37.6865C132.436 35.0805 133.113 32.7764 134.332 30.7743C135.584 28.7403 137.212 27.1354 139.215 25.9595C141.25 24.7836 143.476 24.1957 145.895 24.1957C147.932 24.1957 149.696 24.5294 151.189 25.1968C152.713 25.8642 153.986 26.7858 155.006 27.9617C156.027 29.1376 156.783 30.4882 157.276 32.0137C157.771 33.5074 157.972 35.1282 157.88 36.8761C157.857 37.3211 157.801 37.7819 157.713 38.2586C157.656 38.7353 157.555 39.1484 157.409 39.498H137.36L137.61 34.7309H154.126L151.049 36.9715C151.412 35.5096 151.401 34.2066 151.015 33.0625C150.662 31.9184 150.009 31.0126 149.057 30.3452C148.138 29.6778 146.994 29.3441 145.625 29.3441C144.32 29.3441 143.141 29.6778 142.088 30.3452C141.036 30.9808 140.207 31.9343 139.599 33.2055C139.025 34.4449 138.755 35.9545 138.789 37.7342C138.578 39.3232 138.711 40.7375 139.187 41.9769C139.697 43.1846 140.475 44.1221 141.522 44.7895C142.601 45.4569 143.856 45.7906 145.288 45.7906C146.72 45.7906 147.946 45.4887 148.964 44.8848C150.014 44.281 150.852 43.4706 151.478 42.4536L156.408 44.9325C155.834 46.172 154.981 47.2684 153.849 48.2218C152.717 49.1752 151.389 49.9221 149.865 50.4623C148.373 51.0026 146.735 51.2727 144.953 51.2727Z" fill="#FFFCF2"/>
<path d="M160.703 50.7007L162.594 14.6138H168.848L168.048 29.8685L167.236 28.9628C167.923 27.4055 168.971 26.2296 170.381 25.4351C171.825 24.6088 173.469 24.1957 175.315 24.1957C177.225 24.1957 178.89 24.6088 180.31 25.4351C181.763 26.2614 182.863 27.4214 183.613 28.9151C184.363 30.377 184.688 32.0773 184.586 34.0159L183.712 50.7007H177.458L178.255 35.4937C178.315 34.3496 178.144 33.3644 177.742 32.5381C177.34 31.7118 176.753 31.0762 175.98 30.6312C175.241 30.1545 174.347 29.9162 173.297 29.9162C172.278 29.9162 171.359 30.1545 170.538 30.6312C169.719 31.0762 169.065 31.7118 168.577 32.5381C168.088 33.3644 167.813 34.3496 167.753 35.4937L166.956 50.7007H160.703Z" fill="#FFFCF2"/>
<path d="M191.569 39.9271L192.436 15.1859H198.785L197.059 39.9271H191.569ZM190.575 50.7007L190.925 44.0268H197.274L196.924 50.7007H190.575Z" fill="#FFFCF2"/>
<path fill-rule="evenodd" clip-rule="evenodd" d="M107.425 51.6886L109.39 14.1978H117.861L116.3 43.9921H131.527L131.124 51.6886H107.425ZM115.258 44.9801L116.82 15.1858H110.328L108.466 50.7006H130.186L130.486 44.9801H115.258ZM133.492 30.2944L133.495 30.2898C134.836 28.1123 136.589 26.3814 138.746 25.1147L138.752 25.111C140.954 23.8389 143.359 23.2076 145.947 23.2076C148.089 23.2076 149.992 23.5584 151.629 24.29C153.27 25.0089 154.655 26.009 155.77 27.2931C156.872 28.5636 157.689 30.0229 158.22 31.6635C158.754 33.2791 158.967 35.0198 158.87 36.8761C158.845 37.3579 158.785 37.8518 158.692 38.3572C158.627 38.8895 158.508 39.387 158.321 39.8356L158.05 40.4859H139.806C139.878 40.8658 139.979 41.2261 140.109 41.5679C140.549 42.6036 141.206 43.3864 142.08 43.9455C142.994 44.5094 144.071 44.8026 145.34 44.8026C146.633 44.8026 147.667 44.5308 148.491 44.0424L148.503 44.0352C149.402 43.5185 150.109 42.8332 150.641 41.9692L151.142 41.1553L157.7 44.4525L157.304 45.3074C156.66 46.6976 155.707 47.9165 154.465 48.9625C153.226 50.0055 151.785 50.8122 150.155 51.3903C148.538 51.9755 146.783 52.2606 144.902 52.2606C142.074 52.2606 139.587 51.6203 137.476 50.3072C135.387 49.0078 133.796 47.2404 132.715 45.0195C131.634 42.7997 131.17 40.3488 131.31 37.6865C131.454 34.936 132.173 32.4626 133.492 30.2944ZM149.865 50.4623C151.389 49.922 152.717 49.1751 153.849 48.2217C154.981 47.2683 155.834 46.1719 156.408 44.9324L151.478 42.4536C150.852 43.4705 150.014 44.2809 148.964 44.8848C147.946 45.4886 146.72 45.7905 145.288 45.7905C143.856 45.7905 142.601 45.4568 141.522 44.7894C140.475 44.122 139.697 43.1845 139.187 41.9768C139.006 41.5052 138.874 41.0082 138.793 40.4859C138.743 40.1661 138.711 39.8368 138.698 39.498H157.409C157.555 39.1484 157.656 38.7352 157.713 38.2585C157.801 37.7818 157.857 37.321 157.881 36.8761C157.972 35.1281 157.771 33.5073 157.276 32.0136C156.783 30.4882 156.027 29.1375 155.006 27.9616C153.986 26.7857 152.713 25.8641 151.189 25.1967C149.696 24.5293 147.932 24.1956 145.895 24.1956C143.476 24.1956 141.25 24.7835 139.215 25.9594C137.212 27.1353 135.584 28.7402 134.332 30.7742C133.113 32.7764 132.436 35.0805 132.299 37.6865C132.168 40.1971 132.605 42.4853 133.61 44.5511C134.616 46.6168 136.089 48.2535 138.031 49.4612C139.973 50.6688 142.28 51.2727 144.953 51.2727C146.735 51.2727 148.373 51.0025 149.865 50.4623ZM139.375 33.7429C139.259 34.0568 139.159 34.3862 139.077 34.7309H151.31C151.298 34.3905 151.261 34.0612 151.197 33.7429C151.15 33.5101 151.09 33.2833 151.015 33.0624C150.662 31.9183 150.009 31.0125 149.057 30.3451C148.138 29.6778 146.994 29.3441 145.625 29.3441C144.32 29.3441 143.141 29.6778 142.088 30.3451C141.036 30.9808 140.207 31.9342 139.599 33.2054C139.518 33.3793 139.444 33.5584 139.375 33.7429ZM140.492 33.586C140.468 33.6376 140.445 33.6899 140.422 33.7429H150.17C150.142 33.6332 150.11 33.5258 150.075 33.4205L150.071 33.4093L150.067 33.3979C149.773 32.4456 149.24 31.7106 148.46 31.1631L148.454 31.1589L148.448 31.1545C147.715 30.6226 146.775 30.332 145.573 30.332C144.447 30.332 143.462 30.617 142.587 31.1711L142.578 31.1771L142.568 31.1829C141.722 31.6946 141.024 32.4751 140.492 33.586ZM159.662 51.6886L161.657 13.6258H169.889L169.294 24.9756C169.497 24.8367 169.707 24.7056 169.926 24.5826C171.546 23.656 173.37 23.2076 175.367 23.2076C177.422 23.2076 179.256 23.6533 180.838 24.5727C182.445 25.4881 183.671 26.7798 184.501 28.4328C185.338 30.0636 185.685 31.9351 185.576 34.0158L184.649 51.6886H176.417L177.266 35.4936C177.319 34.4775 177.165 33.6604 176.846 33.0064C176.522 32.3401 176.06 31.8434 175.452 31.4932L175.432 31.4816L175.412 31.469C174.849 31.1057 174.141 30.9041 173.245 30.9041C172.388 30.9041 171.65 31.1026 171.003 31.4783L170.99 31.4859L170.977 31.4932C170.332 31.8434 169.817 32.3401 169.423 33.0064C169.036 33.6604 168.796 34.4775 168.743 35.4936L167.894 51.6886H159.662ZM183.613 28.915C182.863 27.4213 181.763 26.2613 180.31 25.435C178.89 24.6087 177.225 24.1956 175.315 24.1956C173.469 24.1956 171.825 24.6087 170.381 25.435C169.965 25.6694 169.581 25.9368 169.228 26.2375C168.841 26.5672 168.492 26.9368 168.18 27.3463L168.848 14.6138H162.594L160.703 50.7006H166.957L167.753 35.4936C167.813 34.3495 168.088 33.3643 168.577 32.538C168.643 32.4256 168.713 32.3167 168.785 32.2114C168.831 32.1456 168.877 32.0812 168.925 32.0182C169.363 31.4401 169.9 30.9778 170.538 30.6312C171.359 30.1545 172.278 29.9161 173.297 29.9161C174.347 29.9161 175.241 30.1545 175.98 30.6312C176.753 31.0761 177.34 31.7117 177.742 32.538C178.144 33.3643 178.315 34.3495 178.255 35.4936L177.459 50.7006H183.712L184.586 34.0158C184.688 32.0772 184.363 30.3769 183.613 28.915ZM190.545 40.915L191.482 14.1978H199.844L197.98 40.915H190.545ZM189.534 51.6886L189.987 43.0387H198.315L197.862 51.6886H189.534ZM197.059 39.927H191.569L192.436 15.1858H198.785L197.059 39.927ZM190.575 50.7006H196.924L197.274 44.0267H190.925L190.575 50.7006Z" fill="#FFFCF2"/>
<rect width="101.371" height="57.8197" rx="1.55809" transform="matrix(1 0 -0.0697565 0.997564 4.81445 19.1008)" fill="#403D39"/>
<path d="M28.4022 66.6964C26.0876 66.6964 23.9656 66.2736 22.0361 65.4281C20.1393 64.5826 18.5259 63.4118 17.1961 61.9159C15.9012 60.3874 14.9983 58.6151 14.4873 56.5988L20.1801 54.2086C20.9147 56.2899 22.0713 57.9322 23.6497 59.1354C25.2304 60.3061 27.064 60.8915 29.1504 60.8915C30.324 60.8915 31.3471 60.7126 32.2197 60.3549C33.1272 59.9647 33.8318 59.4444 34.3337 58.794C34.8682 58.1435 35.1673 57.3631 35.2309 56.4525C35.306 55.3793 35.0414 54.5013 34.4371 53.8183C33.8678 53.1029 32.961 52.5501 31.7169 52.1598L24.8812 49.9159C22.1064 49.0379 20.0633 47.7208 18.7517 45.9647C17.4401 44.2086 16.8673 42.1435 17.0333 39.7696C17.1788 37.6883 17.8126 35.8509 18.9346 34.2574C20.0892 32.6639 21.61 31.4281 23.497 30.5501C25.4189 29.6395 27.5697 29.1842 29.9495 29.1842C32.1337 29.1842 34.1113 29.5744 35.8823 30.3549C37.6555 31.1029 39.1464 32.1598 40.3549 33.5257C41.5983 34.859 42.4823 36.4362 43.0069 38.2574L37.3596 40.6964C36.7698 38.8753 35.7917 37.4769 34.4256 36.5013C33.0617 35.4931 31.4343 34.9891 29.5436 34.9891C28.4352 34.9891 27.4435 35.1842 26.5687 35.5744C25.6961 35.9322 24.9914 36.4525 24.4546 37.1354C23.9527 37.7858 23.67 38.5663 23.6063 39.4769C23.5358 40.485 23.7993 41.3793 24.3967 42.1598C24.9964 42.9078 25.9497 43.4931 27.2568 43.9159L33.8093 46.0135C36.6448 46.9566 38.7217 48.2574 40.0401 49.9159C41.3911 51.5744 41.9813 53.6232 41.8108 56.0622C41.6652 58.1435 40.9989 59.9809 39.8116 61.5744C38.6244 63.1679 37.0536 64.42 35.0991 65.3305C33.1447 66.2411 30.9123 66.6964 28.4022 66.6964Z" fill="#FFFCF2"/>
<path d="M45.336 66.111L47.1916 39.5744H53.5975L51.7418 66.111H45.336ZM47.3997 36.5988L47.8772 29.7696H54.2831L53.8055 36.5988H47.3997Z" fill="#FFFCF2"/>
<path d="M56.4339 66.111L58.2895 39.5744H64.3042L63.9392 44.794L63.515 43.8671C64.2458 42.2736 65.3406 41.0704 66.7992 40.2574C68.2927 39.4118 69.9849 38.9891 71.8756 38.9891C73.8316 38.9891 75.5299 39.4118 76.9703 40.2574C78.4434 41.1029 79.5503 42.2899 80.291 43.8183C81.034 45.3143 81.3361 47.0541 81.1974 49.0379L80.0035 66.111H73.5977L74.6858 50.5501C74.7677 49.3793 74.61 48.3712 74.2127 47.5257C73.8154 46.6801 73.2252 46.0297 72.442 45.5744C71.6938 45.0866 70.7817 44.8427 69.7059 44.8427C68.6627 44.8427 67.7166 45.0866 66.8675 45.5744C66.0207 46.0297 65.3395 46.6801 64.824 47.5257C64.3084 48.3712 64.0097 49.3793 63.9279 50.5501L62.8398 66.111H56.4339Z" fill="#FFFCF2"/>
<path d="M84.1978 66.111L86.0534 39.5744H92.4593L90.6036 66.111H84.1978ZM86.2615 36.5988L86.739 29.7696H93.1449L92.6673 36.5988H86.2615Z" fill="#FFFCF2"/>
</svg>
